<?xml version="1.0" standalone="no"?><!DOCTYPE svg PUBLIC "-//W3C//DTD SVG 1.1//EN" "http://www.w3.org/Graphics/SVG/1.1/DTD/svg11.dtd"><svg class="icon" width="200px" height="200.00px" viewBox="0 0 1024 1024" version="1.1" xmlns="http://www.w3.org/2000/svg"><path d="M690.48 336H109.74a142.3 142.3 0 0 0-0.94 16.28v330.14c0 78 63.46 141.47 141.47 141.47H769c3.09 0 6.16-0.11 9.21-0.31V423.1c0.01-48.97-38.38-87.1-87.73-87.1z" fill="#bbf2ff" /><path d="M771.37 205.47c78 0 141.47 63.46 141.47 141.47v330.11c0 78-63.46 141.47-141.47 141.47H252.63c-78 0-141.47-63.46-141.47-141.47v-330.1c0-78 63.46-141.47 141.47-141.47h518.74m0-47.16H252.63C148.45 158.32 64 242.77 64 346.95v330.1c0 104.18 84.45 188.63 188.63 188.63h518.74c104.18 0 188.63-84.45 188.63-188.63v-330.1c0-104.18-84.45-188.63-188.63-188.63z" fill="#2087e7" /><path d="M665.5 359c-40.9-38.17-95.41-59.17-153.48-59.17s-112.59 21-153.49 59.17-63.61 89.36-63.61 143.88a178.79 178.79 0 0 0 18.43 79.46 192.62 192.62 0 0 0 50.2 63.24l6.79 56.27A25.44 25.44 0 0 0 406 722c11.76-5.31 23.65-10.82 35.32-16.41l3.6-1.71c8.75-4.21 15.66-7.68 21.07-10.56a246 246 0 0 0 46 4.33c59 0 113.72-19.69 154-55.43 40.69-36.14 63.07-85.62 63.07-139.34 0-54.52-22.57-105.62-63.59-143.88zM396.95 622.06c-39.25-29.38-61.81-72.66-61.81-118.76 0-90.22 79.34-163.62 176.87-163.62s176.87 73.4 176.87 163.62c0 88.82-76 155.8-176.88 155.8h-0.22a202.11 202.11 0 0 1-46.18-5.36l-1.61-0.38-1.4 0.89c-10.3 6.55-44.38 22.27-57.14 28.08l-7.15-59.26z m0 0" fill="#2087e7" /><path d="M443.37 585.73c17.85 16.81 41.64 26.06 67 26.06s49.09-9.25 67-26.06a86.69 86.69 0 0 0 27.79-63.51 14.81 14.81 0 0 0-29.61 0c0 33.06-29.24 60-65.18 60s-65.19-26.9-65.19-60a14.81 14.81 0 0 0-29.61 0c0 24.06 9.91 46.62 27.86 63.51z m0 0" fill="#2087e7" /></svg>