<?xml version="1.0" standalone="no"?><!DOCTYPE svg PUBLIC "-//W3C//DTD SVG 1.1//EN" "http://www.w3.org/Graphics/SVG/1.1/DTD/svg11.dtd"><svg class="icon" width="48px" height="42.15px" viewBox="0 0 1166 1024" version="1.1" xmlns="http://www.w3.org/2000/svg"><path d="M1073.152 219.307c-39.396 0-71.339 32.569-71.339 72.789 0 10.155 1.991 19.826 5.69 28.644l-232.449 98.417-163.413-286.52a73.244 73.244 0 0 0 30.748-59.876C642.39 32.569 610.475 0 571.08 0S499.74 32.569 499.74 72.76c0 24.605 11.976 46.308 30.265 59.535l-181.39 286.692-211.968-96.854c3.982-9.159 6.315-19.171 6.315-29.866 0-40.192-31.915-72.761-71.31-72.761S0 251.904 0 292.124c0 39.68 31.09 71.908 69.831 72.761L180.395 851.2c4.153 18.489 20.28 31.545 38.883 31.545h703.09c18.603 0 34.73-13.085 38.884-31.573l110.734-486.287h1.138c39.424 0 71.338-32.569 71.338-72.76 0-40.221-31.914-72.79-71.31-72.79zM890.766 801.28H251.051l-85.618-376.718 181.703 83.114a39.538 39.538 0 0 0 49.863-15.075L569.23 220.16l154.454 270.734c9.955 17.636 31.26 24.918 49.72 17.124L977.21 421.66l-86.443 379.62z m24.121 141.141l-687.957 0.171c-22.102 0-39.908 18.148-39.908 40.676 0 22.584 17.806 40.732 39.908 40.732l687.957-0.17c22.101 0 39.88-18.148 39.88-40.705s-17.779-40.704-39.88-40.704z" fill="#f4ea2a" /></svg>